<svg width="79" height="34" viewBox="0 0 79 34" fill="none" xmlns="http://www.w3.org/2000/svg">
<path d="M9.096 26.36C7.368 26.36 5.876 25.984 4.62 25.232C3.372 24.48 2.408 23.428 1.728 22.076C1.056 20.724 0.72 19.152 0.72 17.36C0.72 15.568 1.056 13.996 1.728 12.644C2.408 11.292 3.372 10.24 4.62 9.488C5.876 8.736 7.368 8.36 9.096 8.36C11.08 8.36 12.744 8.852 14.088 9.836C15.44 10.82 16.392 12.152 16.944 13.832L13.656 14.744C13.336 13.696 12.796 12.884 12.036 12.308C11.276 11.724 10.296 11.432 9.096 11.432C8 11.432 7.084 11.676 6.348 12.164C5.62 12.652 5.072 13.34 4.704 14.228C4.336 15.116 4.152 16.16 4.152 17.36C4.152 18.56 4.336 19.604 4.704 20.492C5.072 21.38 5.62 22.068 6.348 22.556C7.084 23.044 8 23.288 9.096 23.288C10.296 23.288 11.276 22.996 12.036 22.412C12.796 21.828 13.336 21.016 13.656 19.976L16.944 20.888C16.392 22.568 15.44 23.9 14.088 24.884C12.744 25.868 11.08 26.36 9.096 26.36ZM25.6103 26.36C24.2823 26.36 23.1103 26.076 22.0943 25.508C21.0863 24.932 20.2943 24.144 19.7183 23.144C19.1503 22.136 18.8663 20.984 18.8663 19.688C18.8663 18.272 19.1463 17.04 19.7063 15.992C20.2663 14.944 21.0383 14.132 22.0223 13.556C23.0063 12.972 24.1383 12.68 25.4183 12.68C26.7783 12.68 27.9343 13 28.8863 13.64C29.8383 14.28 30.5423 15.18 30.9983 16.34C31.4543 17.5 31.6143 18.864 31.4783 20.432H28.2503V19.232C28.2503 17.912 28.0383 16.964 27.6143 16.388C27.1983 15.804 26.5143 15.512 25.5623 15.512C24.4503 15.512 23.6303 15.852 23.1023 16.532C22.5823 17.204 22.3223 18.2 22.3223 19.52C22.3223 20.728 22.5823 21.664 23.1023 22.328C23.6303 22.984 24.4023 23.312 25.4183 23.312C26.0583 23.312 26.6063 23.172 27.0623 22.892C27.5183 22.612 27.8663 22.208 28.1063 21.68L31.3703 22.616C30.8823 23.8 30.1103 24.72 29.0543 25.376C28.0063 26.032 26.8583 26.36 25.6103 26.36ZM21.3143 20.432V18.008H29.9062V20.432H21.3143ZM41.9638 26C41.0678 26.168 40.1878 26.24 39.3238 26.216C38.4678 26.2 37.6998 26.052 37.0198 25.772C36.3478 25.484 35.8358 25.024 35.4838 24.392C35.1638 23.8 34.9958 23.2 34.9798 22.592C34.9638 21.976 34.9558 21.28 34.9558 20.504V9.44H38.2198V20.312C38.2198 20.816 38.2238 21.272 38.2318 21.68C38.2478 22.08 38.3318 22.4 38.4838 22.64C38.7718 23.096 39.2318 23.344 39.8638 23.384C40.4958 23.424 41.1958 23.392 41.9638 23.288V26ZM32.7478 15.56V13.04H41.9638V15.56H32.7478ZM53.6839 26V19.88C53.6839 19.584 53.6679 19.208 53.6359 18.752C53.6039 18.288 53.5039 17.824 53.3359 17.36C53.1679 16.896 52.8919 16.508 52.5079 16.196C52.1319 15.884 51.5959 15.728 50.8999 15.728C50.6199 15.728 50.3199 15.772 49.9999 15.86C49.6799 15.948 49.3799 16.12 49.0999 16.376C48.8199 16.624 48.5879 16.992 48.4039 17.48C48.2279 17.968 48.1399 18.616 48.1399 19.424L46.2679 18.536C46.2679 17.512 46.4759 16.552 46.8919 15.656C47.3079 14.76 47.9319 14.036 48.7639 13.484C49.6039 12.932 50.6599 12.656 51.9319 12.656C52.9479 12.656 53.7759 12.828 54.4159 13.172C55.0559 13.516 55.5519 13.952 55.9039 14.48C56.2639 15.008 56.5199 15.56 56.6719 16.136C56.8239 16.704 56.9159 17.224 56.9479 17.696C56.9799 18.168 56.9959 18.512 56.9959 18.728V26H53.6839ZM44.8279 26V8.72H47.7319V17.6H48.1399V26H44.8279Z" fill="#2563EB"/>
<path d="M63.7097 26.36C62.7817 26.36 61.9937 26.184 61.3457 25.832C60.7057 25.472 60.2177 24.996 59.8817 24.404C59.5537 23.804 59.3897 23.144 59.3897 22.424C59.3897 21.824 59.4817 21.276 59.6657 20.78C59.8497 20.284 60.1457 19.848 60.5537 19.472C60.9697 19.088 61.5257 18.768 62.2217 18.512C62.7017 18.336 63.2737 18.18 63.9377 18.044C64.6017 17.908 65.3537 17.78 66.1937 17.66C67.0337 17.532 67.9577 17.392 68.9657 17.24L67.7897 17.888C67.7897 17.12 67.6057 16.556 67.2377 16.196C66.8697 15.836 66.2537 15.656 65.3897 15.656C64.9097 15.656 64.4097 15.772 63.8897 16.004C63.3697 16.236 63.0057 16.648 62.7977 17.24L59.8457 16.304C60.1737 15.232 60.7897 14.36 61.6937 13.688C62.5977 13.016 63.8297 12.68 65.3897 12.68C66.5337 12.68 67.5497 12.856 68.4377 13.208C69.3257 13.56 69.9977 14.168 70.4537 15.032C70.7097 15.512 70.8617 15.992 70.9097 16.472C70.9577 16.952 70.9817 17.488 70.9817 18.08V26H68.1257V23.336L68.5337 23.888C67.9017 24.76 67.2177 25.392 66.4817 25.784C65.7537 26.168 64.8297 26.36 63.7097 26.36ZM64.4057 23.792C65.0057 23.792 65.5097 23.688 65.9177 23.48C66.3337 23.264 66.6617 23.02 66.9017 22.748C67.1497 22.476 67.3177 22.248 67.4057 22.064C67.5737 21.712 67.6697 21.304 67.6937 20.84C67.7257 20.368 67.7417 19.976 67.7417 19.664L68.7017 19.904C67.7337 20.064 66.9497 20.2 66.3497 20.312C65.7497 20.416 65.2657 20.512 64.8977 20.6C64.5297 20.688 64.2057 20.784 63.9257 20.888C63.6057 21.016 63.3457 21.156 63.1457 21.308C62.9537 21.452 62.8097 21.612 62.7137 21.788C62.6257 21.964 62.5817 22.16 62.5817 22.376C62.5817 22.672 62.6537 22.928 62.7977 23.144C62.9497 23.352 63.1617 23.512 63.4337 23.624C63.7057 23.736 64.0297 23.792 64.4057 23.792Z" fill="#F59E0B"/>
<circle cx="63.8333" cy="18.8334" r="8.16667" stroke="#F59E0B" stroke-width="3"/>
<path d="M74.3333 29.3333L70.8333 25.8333" stroke="#F59E0B" stroke-width="3" stroke-linecap="round"/>
</svg>
